<svg xmlns="http://www.w3.org/2000/svg" viewBox="0 0 1117.43 258.7"><defs><style>.cls-1{fill:#402622;}.cls-2{fill:#f07a47;}.cls-3{fill:#fff;}</style></defs><title>Excelent</title><g id="Camada_2" data-name="Camada 2"><g id="DESIGNED_BY_FREEPIK" data-name="DESIGNED BY FREEPIK"><path class="cls-1" d="M943.41,194.17c0,13.9-.2,26.51.11,39.1.11,4.32-1.11,5.8-5.45,6.56-14.68,2.54-29.29,5.51-43.85,8.67-3.46.75-5.68.08-8-2.36-3-3.18-6.39-6-8.41-7.91-6.82,1.59-12.59,3.22-18.46,4.25-10.73,1.87-21.5,3.57-32.31,4.9a11.79,11.79,0,0,1-7.68-2c-12.06-8.73-23.87-17.81-35.51-26.58-4.63,6.07-8.53,12.47-13.64,17.66-16.57,16.8-37,17.18-58.24,12.26-17-3.94-30.73-13.28-42.82-27.43-.38,6.07-.46,11.09-1.12,16-.23,1.7-1.57,4.26-2.92,4.66-33.75,9.91-70.58,7.44-96.39-23.32-4.43-5.29-7.37-11.83-11.07-17.89-1.09,3.2-2.14,6.45-3.29,9.66-11.47,31.85-34.7,45.53-68.15,39.6-28.34-5-47.63-22.05-60.62-47-.71-1.35-1.4-2.71-2.15-4-.17-.31-.56-.49-1.41-1.2-5.77,25.63-20,43.43-46.36,48.81-24.6,5-47.53.7-67.85-15-.45.25-1.12.39-1.37.79-14.35,22.19-44.88,23.15-63.76,12.88-10.58-5.75-20.06-13.55-30.24-20.58-1.72,5.09-3.91,11.13-5.78,17.27-.93,3-2.44,4.15-5.71,4.1-13.2-.19-26.41,0-39.61-.19a12.87,12.87,0,0,1-6.59-2.54c-3.58-2.51-6.82-5.5-9-7.3-3.24,1.66-5.49,3.67-7.93,3.95-29.26,3.26-58.56,6.22-87.83,9.4a12.17,12.17,0,0,1-9.93-2.87C28.12,236.67,15.88,227.17,4,217.27a9.77,9.77,0,0,1-3.25-6.52Q.17,112.59,0,14.43c0-1.32.13-2.64.23-4.37,1.59-.16,3-.42,4.47-.44C36.85,9.22,69,9,101.13,8.33c6.67-.14,11.9,1.1,15.66,6.76.74,1.11,1.56,2.17,2.47,3.43,33.88-22.18,61.43-12,86.27,16.4,2.47-7.3,4.79-13.44,6.58-19.73,1.16-4,2.94-5.81,7.5-5.68,12.81.35,25.65.3,38.46,0,4-.08,6.21,1.29,8.1,4.68,4.15,7.43,8.68,14.65,12.91,21.72,5.2-6.18,9.48-12.59,15-17.6,12.17-11,27.34-13.89,43.22-13.68,33.48.45,58.53,15.18,74.86,44.53.36.65.83,1.25,1.66,2.48,2.2-5.07,4-9.8,6.25-14.28,11.72-23.16,31.25-33,56.57-32.75,20.54.23,39.68,5.29,56.86,16.89a14,14,0,0,0,2,1.17c.29.14.71,0,1.68,0-2.87-10.35,4.62-12.85,11.93-15.63,20-7.61,39.8-5.2,59.42,1.58,1.47.5,2.72,2,3.74,3.34C620.63,22.7,629,33.38,637.1,44.29a14.85,14.85,0,0,1,2.55,7.77c.34,7.4.12,14.83.84,22.33,2.12-8.32,3.79-16.79,6.44-25,6-18.59,16.61-33.64,35.72-40.73,14.56-5.4,29.66-5.06,44.73-2.35,17.46,3.13,33.23,10,46.54,22a21.22,21.22,0,0,0,2.4,1.54V12.79A36,36,0,0,1,780.5,12c14.71-.8,29.41-1.71,44.13-2.21,3.23-.11,6.49,1.33,9.77,1.84,1.52.24,3.37.49,4.63-.14A65.73,65.73,0,0,1,922.4,32.91c3.47,4.92,3.47,4.92,11,3.71,0-6.88.12-13.9,0-20.92-.08-3.06,1-4.34,4-5Q959.8,6,982.12.76c4-.93,6.25-.12,8.25,3.61,4.7,8.75,10.1,17.13,14.71,25.92,2,3.79,4.24,5.64,8.44,4.78,6.89-1.43,11.37,1,14.52,7.51a71.57,71.57,0,0,0,11.49,16.31c-1.07-18.41-2.14-36.82-3.27-56.11h9.92c13,0,26,.22,39-.12,4.74-.12,7.88,1.29,10.55,5.12a67.42,67.42,0,0,0,9.17,11c7.23,6.68,8.73,14.45,8,24.13-3.07,42.54-5.37,85.14-8,127.72-.08,1.31-.31,2.61-.5,4.15l-5.21,1c4.22,4.9,8.73,9.26,12.18,14.34,7.65,11.23,7.85,26.68,1.08,35.66-6.92,9.19-22.75,13.63-36.21,9.29-7.33-2.36-14.2-6.15-21.77-9.51.69,10.47,1.42,21.37,2.19,32.89-23.16.16-46.18,2.43-67.57-8.79-20-10.51-33.37-27-42.3-47.39C945.85,199.86,944.84,197.48,943.41,194.17ZM127.3,159.55h-7c-11.09,0-22.18-.11-33.26.11-1.78,0-3.54,1.54-5.31,2.37,2,.74,3.93,2.19,5.83,2.09,7.62-.41,15.25-1.1,22.82-2.09,3.72-.49,6,.57,8.09,3.67,4,5.94,8.41,11.6,13.16,18.06.74-1.76,1.11-2.58,1.43-3.41,7.32-18.85,14-38,22.15-56.47,5.83-13.31,9.18-26,1.53-39.49-1.29-2.28-1.72-5.52-3.59-6.89C148,73.72,142.27,70.69,136,66.9c-.46,8-.87,15.09-1.3,22.57l-51.2-3.15v9.11c6.08,0,11.8-.32,17.46.14a11.84,11.84,0,0,1,7.19,3.17c6.46,7,12.5,14.43,18.58,21.8,1.15,1.39,2.55,3.25,2.49,4.85C128.78,136.61,128,147.83,127.3,159.55Zm887-43.86c0,12.77.13,24.8,0,36.82-.12,8.6-.19,16.42,9.86,20.75,5.55,2.39,9.89,7.58,15.15,11.82,2.89-10.23,9.58-16.33,19.21-20.39-2.09-1.58-3.44-3-5.08-3.78-7.3-3.57-9.38-9.47-9.21-17.28.18-8.71-.75-17.44-1.23-26.61ZM363.46,93.4c-2.93,17-3,33,.36,49.31,9.66,0,18.82.28,28-.11,4.42-.19,7,1.3,9.27,5,2.75,4.49,6.07,8.63,9.38,13.24-1.46-17.35-2.85-33.79-4.28-50.66-5.25.43-10.4.66-15.49,1.34-4.26.57-7.63-.18-10.84-3.4C374.88,103.13,369.42,98.69,363.46,93.4Zm-97.17,12.45c-4.65,10.1-8.85,19.2-13,28.33a5.44,5.44,0,0,0-.5,2.21c.08,9.78,9.07,22.52,18,26.05C269.29,144.17,267.84,125.64,266.29,105.85Zm373.38,34-.7.18c0,6.48.19,13-.08,19.43-.15,3.67,1,6,5.14,7.15Z"/><path class="cls-2" d="M900.45,205l-46.37,2.3v-7.37c0-41.12.1-82.25-.08-123.37a176.62,176.62,0,0,0-1.86-24c-1.17-8.3-6-12.61-13-12.78-6.71-.17-12.66,4.2-14.09,11.86a136.13,136.13,0,0,0-2.33,23.91c-.22,40.17-.1,80.34-.1,120.5v6.34l-45,2.43c-.77-64.46-1.55-128.63-2.33-193.51l44.77-2.7c.44,5.57.83,10.64,1.32,17,1.5-2.05,2.44-3.26,3.31-4.53C835,6,849.9,1.87,867,4.31,883,6.61,893.07,16.58,897.1,32a101.61,101.61,0,0,1,3.45,24.81c.32,48,.17,96,.17,144C900.72,201.93,900.58,203.05,900.45,205Z"/><path class="cls-2" d="M195.17,58.41,212,8.88h38.68c-3.21,9.15-6.28,18.09-9.48,27-9.32,25.87-18.71,51.71-28,77.6a9.27,9.27,0,0,0-.37,5.47c5.39,17.31,11,34.57,16.53,51.83.11.32.5.55,1.77,1.87l16.7-14.57c5.67,10.87,11.61,22.09,17.27,33.45.49,1-.56,3.18-1.48,4.35-10.81,13.75-25.33,17.38-42,15.3-17.2-2.15-25.65-13.58-30.8-28.61-3-8.79-5.92-17.63-9.39-28-5.32,16.09-10.32,30.57-14.8,45.21-1.26,4.12-3.13,5.25-7.21,5.16-12.36-.26-24.73-.09-37.86-.09,5.22-13.57,10.11-26.36,15-39.13,8.33-21.55,16.72-43.07,25-64.64.58-1.51,1.05-3.49.57-4.93-6-18.31-12.17-36.56-18.66-55.9L128,50.63q-7.51-15.12-14.93-30C128.12,3.25,159.42.26,174.71,14.53c6.71,6.27,9.72,14.47,12.38,22.9,2.22,7,4.49,14,6.74,21.08Z"/><path class="cls-2" d="M682.19,108.88c.27,17.35.29,34.12,7.12,49.94a22.89,22.89,0,0,0,4.8,7c4.9,4.86,12.89,4.11,16.21-1.9,2.15-3.89,3.1-8.52,4.09-12.93.75-3.31.71-6.8,1.06-10.65h38.64c-.6,21-3.9,40.78-20.3,55.45-23.35,20.88-61,14.52-78.72-12.95-10.35-16-14.47-34.09-16.18-52.63-2.21-24.06-2.34-48.28,3.39-71.89a131.4,131.4,0,0,1,12.45-31.71C662.06,13.3,674.54,6.1,689.66,4.39,706.18,2.52,722.21,3.77,735.8,15c11.82,9.74,16.42,23.26,18.61,37.64,2.73,17.91,1.28,35.85-1,53.74-.48,3.75-2.86,3.37-5.36,3.33l-58.51-.79C687.31,108.86,685.06,108.88,682.19,108.88ZM713.84,77.7c.25-11.44-.05-22.06-4.28-32.13-1.87-4.43-5-7.65-10.44-7.53-5.64.13-9.45,2.89-11.58,7.88C683.19,56.14,683,67,682.7,77.7Z"/><path class="cls-2" d="M483.91,140.15h37.66c2.49,24.95-9,55.72-34.69,64.91-24.42,8.73-52-1.54-65.38-25.32-9.21-16.34-13.14-34.19-14.41-52.62-1.68-24.3-1.56-48.59,4.2-72.45C415.35,37.84,421.73,22,437,12.08,472.45-11,515.74,9.15,522.61,51.83c3.07,19.09,1.39,38.08-1.47,57.54H451.05c-.09.18-.6.69-.55,1.13,1.77,14.74,3.36,29.51,5.57,44.19.51,3.37,2.7,6.78,4.9,9.55,5.73,7.21,15.14,6,19-2.3a43.36,43.36,0,0,0,2.92-10.41C483.51,148,483.56,144.34,483.91,140.15Zm-1.46-62.46c.1-11.93-.48-22.58-4.83-32.62-1.88-4.32-5-7.13-10.15-7a11.88,11.88,0,0,0-11.32,7.38c-4.7,10.35-4.68,21.4-4.95,32.26Z"/><path class="cls-2" d="M96.56,130.16H41.81v35.58l63.13-4V205H0V8.5H100.81V46.25l-58-2.32V97.05l52.06-2.23C95.43,106.89,96,118.46,96.56,130.16Z"/><path class="cls-2" d="M348.8,142.7h37.76a68.46,68.46,0,0,1-4.45,29.73c-9.18,24.77-29.51,37-56,35.44-30-1.73-46.23-18-52.81-44.1a234.23,234.23,0,0,1,.29-116.9c5.19-20.24,16.7-35.66,38.2-41a79,79,0,0,1,38.65-.05c25.12,6.34,34.68,25.54,39,48.68.77,4.08,1,8.27,1.5,12.95L350.84,71c-.86-6-1.29-11.45-2.48-16.77-1.92-8.57-7.23-13.45-14.51-14.14s-13.76,2.75-16.14,10.18C315,58.73,312.54,67.59,312,76.41c-1.45,23.08-2.61,46.29,2,69.19a62.45,62.45,0,0,0,6.38,17c3,5.62,8.59,7.15,14.86,6,6-1.1,9.31-5.07,10.71-10.62C347.11,153.19,347.77,148.26,348.8,142.7Z"/><path class="cls-2" d="M976.35,34.66h35.3V70.48l-34.49-1.62a6.94,6.94,0,0,0-.64,1.89c.23,23.14.36,46.28.89,69.42a44.49,44.49,0,0,0,2.9,13.37c4,11.37,13.19,15.69,24.42,16.81,1.51.16,3,.21,5,.33v34c-13.65.13-27.24,1.2-40.42-2.85-22.74-7-32.32-24.94-34.18-46.36-2.34-27-1.95-54.22-2.73-81.35-.06-2.43,0-4.86,0-7.74l-15.77-.83V36.47h15.77c0-8-.16-15.41.12-22.78.07-1.6,1.47-4.23,2.71-4.53C948.6,6,962,3.13,976.35,0Z"/><path class="cls-2" d="M598.34,168.67l30.78-2.84a36.43,36.43,0,0,1,.27,3.94c-.35,10.32-.63,20.65-1.24,31-.1,1.7-1.4,4.49-2.62,4.78-13.8,3.34-27.83,6-42,3.25-20.5-4-29.75-15.62-29.8-36.56-.1-40.37,0-80.75,0-121.12V37.19l-17.25,1.72c0-9.28-.07-18.54.12-27.8,0-.91,1.5-2.1,2.56-2.65C558.06-1.28,577.51-.21,597,6.16c1.35.44,2.45,3.86,2.44,5.89-.09,27.17-.42,54.34-.64,81.51q-.3,34.16-.49,68.3C598.33,163.57,598.34,165.27,598.34,168.67Z"/><path class="cls-2" d="M1035.43,2h44.92c-1.85,48.13-3.69,96-5.56,144.4l-31.06-1.56C1041,97.39,1038.22,50,1035.43,2Z"/><path class="cls-2" d="M1060.29,209.65a23,23,0,1,1,22.82-22.89A22.87,22.87,0,0,1,1060.29,209.65Z"/><path class="cls-3" d="M142.8,190.81c7-17.78,13.84-35.18,20.72-52.57,4.91-12.43,10-24.79,14.7-37.31a12.21,12.21,0,0,0,0-7.63c-7.6-22-15.53-43.94-23.11-66-1.33-3.87-3.92-4.19-6.63-3.2-6.56,2.4-12.92,5.33-19.69,8.19-2.21-2.91-2-5.77,2.31-7.9,2.06-1,4-2.29,6-3.3,13.35-6.54,22.3-2.93,27.29,11.08q12.87,36.17,25.67,72.35c.3.86.72,1.67,1.44,3.31,5.18-14,10.09-27.16,15-40.37,5.31-14.32,10.71-28.61,15.84-43,1.36-3.79,3.3-5.32,7.84-3.64-2.41,6.7-4.77,13.44-7.25,20.13-8.76,23.62-17.66,47.2-26.25,70.88a15.12,15.12,0,0,0-.47,9.29c7.58,22.23,15.65,44.28,23.29,66.48,1.36,3.94,3.69,4.91,6.81,3.55,6.59-2.86,13-6.25,19.89-9.66.47,1.08,1.2,2.72,2.22,5-4.86,3-9.35,6.24-14.24,8.69-11.22,5.62-18.69,2.61-23-9.12-5.1-14-9.95-28.08-14.94-42.11-4.25-11.95-8.54-23.89-13.36-37.36C178,119,173.57,130,169.25,140.9c-6.11,15.45-12.3,30.88-18.13,46.43C149.58,191.44,147.2,192,142.8,190.81Z"/><path class="cls-3" d="M431.81,95.85c-.43,22.37-.4,43.73,6.57,64.37,6.33,18.76,20.54,27.33,39.87,24.59,9.77-1.38,15.16-7.38,18-16.24a38.47,38.47,0,0,0,2-8.92c.28-4.08,2.24-4.83,5.66-3.9C506.46,175.89,493,191.5,473,191.63c-22.25.15-36.24-10.34-42.33-32-8.24-29.24-7.58-58.91-4-88.69,1.56-12.79,4.63-25.14,11.29-36.36a36.5,36.5,0,0,1,48-14c6.8,3.43,11.08,9.18,14,16.1,5.33,12.83,9,44.36,6.73,59.19ZM499.68,89c.3-15.8,0-30.84-4.32-45.46-3.12-10.66-9.5-18.22-21.25-19.76-12.92-1.69-23.43,2.11-30.33,13.68C434.36,53.26,433.67,71,432.06,89Z"/><path class="cls-3" d="M737.76,156.14c-2.89,8.35-5,16.41-8.45,23.85-2.84,6.15-8.71,9.41-15.42,10.84-24.64,5.23-44.78-6.9-51.51-31.15-8.18-29.46-7.71-59.32-3.88-89.31,1.61-12.6,4.66-24.78,11.25-35.81a36.5,36.5,0,0,1,48-14c6.43,3.23,10.74,8.54,13.45,15.09,7.93,19.24,7.32,39.52,7.64,60.12H663.73c0,9.2-.41,18.12.1,27,.81,14.31,2.11,28.62,8.18,41.93,7.74,17,23.68,24.4,41.71,19.3,7.49-2.12,11.68-7.66,14-14.71a44.92,44.92,0,0,0,2.4-10C730.54,154.84,732.93,155.22,737.76,156.14ZM731.5,88.88c0-16.65.16-32.8-5.5-48.34-3.49-9.62-10.11-15.54-20.45-16.83-11.68-1.46-21.84,1.45-28.61,11.59-10.85,16.23-11.51,35-13,53.58Z"/><path class="cls-3" d="M17.75,188.79q-1.08-82.9-2.16-166H86v6.11H23.66v80.45H76.52c.09,1.28.2,2.89.36,5.28l-51.85,2v65.83l63.89-1.93c.38,3.36,1.76,6.36-3.12,6.53q-33,1.14-65.93,2.32A8.78,8.78,0,0,1,17.75,188.79Z"/><path class="cls-3" d="M363.52,153.8h6.77c.4,22.56-13.63,37.37-35.57,37.81-23.38.47-37.62-8.81-43.67-32.38-9.57-37.31-9.87-75.11,2.18-112C301.7,21.25,330.81,10,353.18,23c12.47,7.23,16.92,19.38,19.47,33.3l-6.15.81c-2.2-6.29-3.58-12.32-6.33-17.65C354.59,28.66,344.73,24.67,333,24.6c-13-.07-22.79,5.53-29.29,16.8-6.75,11.7-9.3,24.69-10.36,37.85-2,24.45-2.68,48.95,3.09,73.07,2.8,11.73,7.33,22.57,18.68,29,21.82,12.27,45.23.38,47.82-24.34C363.08,156,363.29,155.11,363.52,153.8Z"/><path class="cls-3" d="M959.91,47.53h35.28v7.69H960.63a5.23,5.23,0,0,0-.69,1.82c-.06,28.86-.36,57.71.11,86.56.11,6.9,2,14.05,4.43,20.58,5.27,14.18,12.26,18.82,29,20.76v5.73C978.75,193,964.74,184.51,959,170c-5.3-13.35-6.86-27.35-6.94-41.54-.14-22.37-.08-44.73-.1-67.1V54.8l-20.25-1.24c-.12-1.83-.23-3.45-.39-6h20.53V22l8.1-1.36Z"/><path class="cls-3" d="M547.08,24.68q-2.28-6.33,4.32-7.2c5.29-.69,10.57-1.82,15.88-2,7.84-.2,12.46,4.11,13.54,11.9a54.36,54.36,0,0,1,.23,7.45c0,46.27,0,92.54-.3,138.81,0,5.31,1.72,8,6.6,8.38,9.2.76,18.43,1.16,28,1.73v6c-10.38,1.79-20.7,2-31.07-.53-6.56-1.61-9.5-6-10.11-12.27-.37-3.8-.43-7.64-.43-11.46q0-68,0-135.94c0-7.18-.95-8.43-8.26-7.89C559.46,22.15,553.48,23.61,547.08,24.68Z"/><path class="cls-3" d="M822.09,40.85c.4-2.37.19-4.3,1-5.53,7.81-11.65,24.2-20.93,38.58-16,10.67,3.67,15.13,12.5,17.58,22.39A94,94,0,0,1,882,62.11c.87,41.86,1.43,83.72,2.09,125.59,0,1.32,0,2.63,0,4.47l-7,.74c-.15-2.71-.37-5.09-.41-7.46-.58-39.58-1-79.15-1.8-118.72A138.07,138.07,0,0,0,872.67,44c-3.42-18.42-18.65-25.21-34.82-15.5C832.54,31.64,828,36.13,822.09,40.85Z"/><path class="cls-3" d="M803.58,192.4l-7.43.34c-.7-56.58-1.4-112.85-2.1-169.65l7.27-.55C802.07,79.21,802.82,135.5,803.58,192.4Z"/><path class="cls-3" d="M1055.19,27.1h6.27a24.13,24.13,0,0,1,.55,3.44q.49,42.45,1,84.89c0,3.53-.19,6.34-5.67,4.61C1056.61,89.42,1055.91,58.54,1055.19,27.1Z"/><path class="cls-3" d="M1067.5,188.69c-2.09,1.36-4.35,4-6.21,3.75-2-.27-3.66-3.25-5.47-5.06,1.84-1.78,3.53-4.76,5.55-5,1.86-.23,4.08,2.49,6.14,3.91Z"/></g></g></svg>