<svg xmlns="http://www.w3.org/2000/svg" viewBox="0 0 603.9 111.25"><title>Fruits</title><g id="Camada_2" data-name="Camada 2"><g id="OBJECTS"><path d="M122.71,4.32,147.9,5.71v5.58c0,20.66,0,41.33.06,62a84.89,84.89,0,0,0,1,11.91c.46,3.12,1.94,5.94,5.63,6a7,7,0,0,0,7.28-5.69,46.4,46.4,0,0,0,1.27-10.36c.12-21.84.08-43.67.09-65.5V4.45l24.07-1.4v106h-23.1c-.29-2.24-.59-4.49-.73-5.6-4.89,2.31-9.61,5.91-14.76,6.71-14.68,2.27-24.83-6.53-25.48-22.29-.73-17.8-.4-35.65-.48-53.48C122.67,24.61,122.71,14.81,122.71,4.32Z"/><path d="M352.58,36.81H333c-.32-3.51-.36-7-1-10.4-.81-4.25-3.66-6.8-8.07-6.69s-6.88,3.12-7.59,7.28A13.68,13.68,0,0,0,321,39.65c5.12,4.74,10.58,9.11,16,13.49,7.07,5.68,13.89,11.64,16.91,20.52,7.07,20.79-8.29,39.24-31,37.41-20.3-1.64-31.25-15.92-28.3-37.34L316,75.57c.13,2.3-.41,4.75.5,6.42,1.49,2.72,3.5,5.83,6.1,7.06,1.87.88,6.47-.27,7.34-1.87,1.45-2.68,2-6.94.89-9.64-1.46-3.45-4.73-6.32-7.7-8.89C317,63.34,310.2,58.71,304.23,53.2c-7.25-6.68-10.35-15.48-9.65-25.26,1.12-15.79,13-26,29.74-26.1C343.78,1.78,356.34,17.14,352.58,36.81Z"/><path d="M509,75.61a50.59,50.59,0,0,0,.51,6.75c1.16,5.52,5.81,8.44,10.74,7,4.25-1.25,6.49-7,3.8-11.68a35.57,35.57,0,0,0-7.77-8.9c-5.92-5.09-12.45-9.49-18.25-14.7a30.9,30.9,0,0,1-10.48-25.94c1.05-16.29,14.05-27.07,31.08-26.21,19,1,30,14.86,27.1,34.85H526c-.29-3.34-.33-6.81-.94-10.17-.84-4.57-4.34-7.33-8.43-6.89-4.47.47-6.74,3.45-7.32,7.62a14,14,0,0,0,4.84,12.57c5.16,4.7,10.64,9,16.07,13.44,6.93,5.59,13.58,11.48,16.61,20.16,6.62,18.94-4.82,35.49-25.76,37.57-22.06,2.19-37.74-15.31-33.34-37.37Z"/><path d="M53.72,25.89H23.53V55H47c.3,6,.6,12,.92,18.41H24.29v35.62H0V6H52.62C53,12.33,53.34,19.06,53.72,25.89Z"/><path d="M284,91.43v18.74c-7.77-.93-15.48-1-22.66-2.91-11-3-15.82-12.08-17-22.46C242.92,72.61,243,60.25,242.46,48c-.16-4,0-7.95,0-12.22l-8.3-1V19.63l8.31-.44c0-3.77-.16-7.37.08-11,.09-1.22,1-3.2,1.85-3.42,7-1.76,14.16-3.18,21.78-4.82V18.38h18.74v18.7H265.68c.54,14,.65,28.26,1.83,42.43.52,6.25,5.12,10.25,11.76,11.09C280.75,90.79,282.2,91.12,284,91.43Z"/><path d="M602.88,109.21c-5.22,0-10.06.38-14.82-.07-13.91-1.32-22.55-9.27-24.72-23.82-1.41-9.49-1.48-19.21-1.86-28.83-.27-6.8-.05-13.61-.05-20.76l-8.29-.92V19.66l8.3-.5c0-3.71-.16-7.31.08-10.89.09-1.22,1-3.23,1.82-3.44,7-1.77,14.18-3.19,21.79-4.83V18.36H603.9V37.08H584.69c.53,14,.45,28.27,1.84,42.39.85,8.68,8.13,11.45,16.35,11.72Z"/><path d="M65.69,109.41V5.9L86,4.62c.68,7,1.34,13.73,2,20.45C92.77,13,97.31,1,114.16,2.21v27c-2.27,0-4.39,0-6.51,0-8.93.22-14.68,4.24-16.36,13A113.93,113.93,0,0,0,89.59,64c.06,13.64.73,27.27,1.12,40.91,0,1-.09,1.91-.16,3.16Z"/><path d="M425.71,89.85l15.89-1.16c0,6.09.12,12.2-.11,18.31-.05,1.08-1.51,3-2.43,3-7.73.56-15.62,1.83-23.2.85-9.31-1.2-13.91-8-14-18.35-.16-22-.06-43.94-.07-65.92V20.45h-9.43c0-4.66-.23-9.13.15-13.54.1-1.19,1.84-2.65,3.15-3.25,9.27-4.23,18.79-3.75,28.2-.65,1.14.37,2.18,3,2.18,4.57,0,23.31-.2,46.61-.34,69.91C425.69,81.42,425.71,85.35,425.71,89.85Z"/><path d="M225.47,37.8v71.33H202.05V37.8Z"/><path d="M453.15,37.7H476.4V109H453.15Z"/><path d="M214.45,30.65A13.31,13.31,0,0,1,200.8,17.18,13.64,13.64,0,0,1,213.91,3.56a13.87,13.87,0,0,1,14,13.83A13.63,13.63,0,0,1,214.45,30.65Z"/><path d="M465.13,30.64a13.31,13.31,0,0,1-13.34-13.78A13.66,13.66,0,0,1,465.23,3.55a13.9,13.9,0,0,1,13.7,13.66A13.62,13.62,0,0,1,465.13,30.64Z"/></g></g></svg>