<svg xmlns="http://www.w3.org/2000/svg" viewBox="0 0 1042.1 270.92"><defs><style>.cls-1{fill:#402622;}.cls-2{fill:#f07a47;}.cls-3{fill:#fff;}</style></defs><title>Nice JOb</title><g id="Camada_2" data-name="Camada 2"><g id="DESIGNED_BY_FREEPIK" data-name="DESIGNED BY FREEPIK"><path class="cls-1" d="M409.12,211.42c-3.77,8.41-6.73,17.13-11.34,24.87-10.37,17.46-26.95,26-46.51,28.23-42.41,4.72-74.06-13.2-92.92-51.67a3.38,3.38,0,0,0-2.07-1.79c.86,16,1.73,32,2.62,48.5H198.5c-.24,2.09-.43,3.66-.67,5.8-10.12,1.4-20.49,2-30.42,4.44-11.8,2.88-20.8.26-29.52-8.25-9-8.81-19.45-16.16-29.27-24.14-.21-.17-.57-.15-1.15-.3V267c-7.36-.38-14.66-1.41-21.87-1C69,267,54.47,262.64,40.79,253c-12.1-8.48-25.33-15.34-37.91-23.15A6.89,6.89,0,0,1,0,224.94Q.54,117,1.4,9c0-.81.15-1.61.28-3C9.83,5.3,17.9,4.6,26,3.87c6.14-.56,12.29-1,18.39-1.84a8.89,8.89,0,0,1,8,2.66c11,10.39,22.2,20.63,33.32,30.92,1.43,1.32,2.87,2.62,5,4.53V3.61c2.48,0,4.9-.08,7.32,0,16.48.66,33,1.25,49.43,2.15a9.1,9.1,0,0,1,5.69,3c5,5.76,9.67,11.84,14.7,18.1,2-3.53,3.52-7,5.74-9.92C184.38,2.65,202.94-.67,220.34,8.42a57.27,57.27,0,0,1,27.5,30.44c.59,1.46,1.17,2.92,1.87,4.67,3.53-6.3,6.46-12.45,10.21-18a53.55,53.55,0,0,1,36.3-23.57c28.61-5,55.43-.65,78.61,18.24,10.05,8.19,17.67,18.47,23.91,30.26,3.32-6.84,6.1-13.49,9.65-19.7C418,13.89,432.6,3.55,451.77,1.27,488-3,520.3,5.61,545.4,33.7c13.47,15.08,19.35,33.49,21,53.38,1.9,23.17-1.84,45.82-6.55,68.36-.47,2.26-1,4.5-1.56,7.12H544.81l-.87,1.28c3.81,3.55,7.88,6.86,11.31,10.73a11.89,11.89,0,0,1,3,7.26c-.29,20-3.45,39.49-13.85,57-11.63,19.63-28.69,30.19-51.84,29.62-37.46-.92-63.58-19.64-80.78-52.08C410.8,214.67,409.89,212.9,409.12,211.42ZM344.21,96c-1.77,17.31-2.24,33.19-.28,49.14.52,4.22,2.33,5.42,6.47,5.26,8.47-.33,17,.13,25.45-.2,4.29-.16,7.1,1,9.38,4.8,2.89,4.81,6.45,9.21,9.68,13.74-1.54-18.11-3.06-35.9-4.6-54-6.24.54-12.52,1.34-18.82,1.49a11.44,11.44,0,0,1-7.05-2.25C357.82,108.57,351.57,102.65,344.21,96ZM241.71,85.75c.42-4.09.7-6.89,1.09-10.66l-6,5.17Z"/><path class="cls-1" d="M869.12,51.43V3.53c.76-.36,1-.63,1.34-.62,26,.52,52.11-.56,77.87,2.05,28.47,2.88,52.61,16,67.61,41.66,13.18,22.53,14.17,46.05,2.06,69.55-1.77,3.45-4.82,6.26-6.86,8.84,6.12,7.5,12.94,14.62,18.34,22.71,13.15,19.7,15,41.41,10.14,64.22-4.14,19.24-13.95,34-31.84,42.81-11.7,5.76-24.3,8.18-37.17,8.78s-25.66.58-38.48.43c-2.61,0-5.4-1.46-7.75-2.84-15.79-9.26-31.48-18.67-47.25-28.07-3.75,4.73-7,9.52-11,13.72-11.83,12.67-26.92,18.89-43.88,20.2-33.33,2.59-62.8-5.41-84.78-32.57-1.89-2.32-3.56-4.82-5.22-7.32-1.55-2.34-3-4.79-4.67-7.59-3.05,5.56-5.62,11-8.89,16.06-9.56,14.63-23.54,22.58-40.66,24-11.55.94-23.26.07-34.9-.2a7.44,7.44,0,0,1-4.29-2.05q-14.7-13.18-29.17-26.61c-1.12-1-2.36-2.66-2.38-4-.16-15.63-.1-31.26-.1-47.11,3.85-.23,7.31-.28,10.73-.67,10.32-1.19,16.48-6.43,18.53-16.65a92.82,92.82,0,0,0,1.69-17.85c.14-44,.08-88,.08-132V5.91c1.59-.13,3-.34,4.42-.34,16.66,0,33.33.07,50-.1a7.07,7.07,0,0,1,6.85,3.73c6.3,10,12.84,19.75,19.12,29.36,4.82-6.73,9-13.67,14.26-19.7,8.89-10.21,20.81-15.4,34-17.43,42.53-6.56,74,11.14,97.83,45.19,1.19,1.7,2.35,3.43,3.52,5.14Z"/><path class="cls-2" d="M94.27,118.54c-.89-37.7-1.77-75.41-2.68-113.85l48.79,1.87V220.82c-12.69.9-24.6,1.84-36.52,2.42-1.12.06-2.8-2-3.46-3.37q-20.73-44-41.26-88.1c-3.87-8.27-7.75-16.53-12.82-24.62l3.35,114.42L1,219.63C1.48,148.69,2,78,2.53,6.7c5.21-.43,10.13-.83,15.06-1.26,6.63-.57,13.3-.93,19.88-1.87,3.59-.51,4.91.95,6.21,3.9Q68,62.44,92.54,117.34a9.27,9.27,0,0,0,.82,1.25Z"/><path class="cls-2" d="M849.3,112.82c.06,19.87-1.1,39.64-6.07,59-4,15.56-10.34,29.87-23.69,40-8.34,6.32-17.93,9.55-28.15,10.56-18.94,1.9-37.32.41-53.21-11.72-10.46-8-16.35-19-20.59-31.17-5.67-16.21-7.36-33.13-8.14-50.08-1.12-24.49-.49-49,4.92-73,3-13.43,7.83-26.14,17.2-36.61C745.48,4.15,763.87.87,783.4,1.28c13,.28,25.45,3,36.14,11.1,13.33,10.1,19.68,24.42,23.65,40C848.23,72.18,849.42,92.45,849.3,112.82Zm-45.21,11.42c-17.48.41-33.42-3.14-48.54-14.45.81,13.87,1,26.19,2.43,38.37a120.89,120.89,0,0,0,5.82,24.63c2.3,6.77,7.22,11.6,15.23,11.6s13.5-4.26,16.81-11.26C803.11,157.81,803,141.27,804.09,124.24Zm.37-30c-1.64-13-2.9-25-4.8-37a41.27,41.27,0,0,0-4.52-12.6c-6.09-11.35-21.1-12.26-28.5-1.71-6.87,9.79-7.85,20.63-2.52,31.23C772.05,89.94,786.94,93,804.46,94.19Z"/><path class="cls-2" d="M871,4.33A10.06,10.06,0,0,1,872.92,4c20.49.26,41-.18,61.44,1,18.42,1.11,34.27,8.7,42.31,26.42,8.78,19.34,9.32,39.33.06,58.93-3.54,7.5-9.71,12.56-17,16.28L955,109.1c3.07.8,5.23,1.33,7.37,1.92,16.67,4.64,28.22,14.62,32.56,31.8,3.84,15.24,3.61,30.52-2.42,45.12-8,19.25-24.52,27.81-43.71,29.38-25.34,2.07-50.88,1.66-76.33,2.29-.28,0-.57-.28-1.41-.72ZM915.63,179c8.59-1.46,16.23-2.07,23.43-4.19,8.09-2.37,12.34-8.67,12.81-17.21s-1.58-16.16-9.83-20.21c-8.46-4.15-17.61-3.5-26.41-3.08ZM913.89,92.4c11.77.42,22.11-.63,27.57-11.51,4.57-9.1,6.38-19.08-.28-27.92-6.87-9.14-17.31-9-27.29-8.82Z"/><path class="cls-2" d="M517.36,115.94H441.07c0,5-.56,10.55.11,15.89,1.39,11,3.24,22,5.33,32.92.61,3.17,2.39,6.24,4.15,9,2.93,4.6,7,7.77,12.87,6.81,5.54-.92,8.9-4.8,10.14-9.89,1.68-6.89,2.56-14,3.86-21.41h42.21c-1.56,10.09-2.29,20.05-4.74,29.57-4.3,16.73-13.21,30.56-29.32,38.46-27.07,13.28-59.27,3.39-75.2-22.84-9.64-15.85-14.09-33.32-16.19-51.49-3.43-29.68-2.78-59.24,4.31-88.35,4.37-18,12-34.22,28.29-44.94,20-13.17,64-13,81.16,13.78a72.16,72.16,0,0,1,11.77,38.19c.26,17.6-1.19,35.23-1.94,52.84A4.18,4.18,0,0,1,517.36,115.94ZM440.21,81.67h35c0-12.35-.09-23.83-4.71-34.66-3.89-9.09-13.62-11.67-20.14-5.09a19.88,19.88,0,0,0-5.32,9.35C443,61.3,441.77,71.5,440.21,81.67Z"/><path class="cls-2" d="M377.66,70.57l-44.41,3.56C332.13,67.33,331.51,61,330,55c-2.3-9.15-7.81-13.69-15.89-14.09-8.63-.42-15,3.29-17.64,12.42-2.79,9.68-5.33,19.76-5.67,29.75-.69,20.61-.3,41.3.61,61.92.35,7.82,2.71,15.75,5.34,23.22,4.05,11.56,15.05,15.88,24.25,10.24,5.65-3.46,7.23-9.31,8.21-15.31.58-3.58.71-7.24,1.07-11.12h41.37c2,35.12-17,71.52-61.06,71-21.32-.25-39.76-6.56-51.92-25.29-8.41-13-12.25-27.63-14.23-42.77-4.06-31.07-4.07-62.16,1.24-93.08,2.31-13.5,6.54-26.5,14.71-37.84A49.73,49.73,0,0,1,286.49,4.87a85.4,85.4,0,0,1,47.82-.82c19.09,5,30.72,18.18,36.56,36.38C373.94,50,375.36,60.11,377.66,70.57Z"/><path class="cls-2" d="M639.57,7h47.76c.12,1.37.29,2.49.29,3.62-.11,45.31-.06,90.62-.46,135.93-.13,14.71-2.69,29.16-8.81,42.73-7.28,16.12-19.78,25.8-37.12,28.47-10.47,1.62-21.15,1.86-32.2,2.76V181.25c1.12-.15,1.93-.28,2.75-.35,15.09-1.14,23.59-8.3,26.34-23.2a108,108,0,0,0,1.39-19.38c.11-41.65.06-83.3.06-124.94Z"/><path class="cls-2" d="M170.91,73.55H218.4V219.39H170.91Z"/><path class="cls-2" d="M195.79,4.76a27.67,27.67,0,0,1,27.55,27.65,27.6,27.6,0,0,1-55.19-.07A27.72,27.72,0,0,1,195.79,4.76Z"/><path class="cls-3" d="M832.63,97.65l7.8-3.3c1,1.86,2,3.58,2.9,5.32-.4.48-.64,1.11-1,1.18-8.25,1.69-9.37,7.06-9.65,14.75a367.28,367.28,0,0,1-4.54,46.11c-2.11,12.73-7.15,24.75-17.5,33.39-23.25,19.4-60.9,9.61-72.17-18.49-5.15-12.82-7.53-26.21-8.39-39.86-1.52-24.15-2-48.36,3.37-72.12a105.5,105.5,0,0,1,9.78-27c9.22-17,25-22.67,43.5-21.13,17.54,1.46,28.87,11.64,35.71,27.31,6.61,15.17,8.85,31.3,9.91,47.64C832.47,93.24,832.51,95.06,832.63,97.65ZM740.25,72a20.45,20.45,0,0,0-.81,3.51c-.63,19-1.84,37.92-1.6,56.88.19,15,2.51,29.87,9.07,43.69,6.83,14.36,18.27,21.5,34.16,21.68,15.31.18,26.68-6.26,33.41-20.11,10.7-22,10-45.8,10.84-69.71C788.49,115.57,758.32,108.56,740.25,72Zm63.68,31.94c4.25-.67,10.8-1.75,17.37-2.69,2.7-.39,3.6-1.71,3.32-4.39-.54-5.29-.76-10.62-1.29-15.91-1.3-13.15-3.85-26-10-37.86C803.71,24.45,782.88,17.92,764,27.51c-17,8.61-23.5,29.8-14,47.68C760.84,95.7,779,103.84,803.93,103.93Z"/><path class="cls-3" d="M890.8,201c-.63-60.64-1.24-120.72-1.87-181.43,17.64.3,34.9-2,51.45,3.92,20,7.19,30.4,25.54,27.74,46.68-2.5,19.83-12.49,34-31.08,42.39,6.55,2,12.78,3.47,18.59,5.9,14.25,6,21.75,17.19,22.89,32.38a69.67,69.67,0,0,1-.91,18.36c-3.11,15.87-14,24.54-29,28.15a137.49,137.49,0,0,1-24.65,3.51C913.17,201.46,902.34,201,890.8,201Zm7.69-7c16.07.42,31.36.58,46.34-3.28,8.94-2.31,16.82-6.55,21.64-14.89,13.07-22.59,1.39-49.83-24.14-54.1-14-2.34-28.48-1.82-42.75-2.56-.42,0-.85.42-1.09.54Zm-.6-81.6c7.25-.43,13.74-.31,20.07-1.27,28.29-4.28,43.69-22.51,42.44-49.78-.75-16.28-9.83-29.31-25.27-32.53-12.19-2.54-24.94-2.41-37.24-3.44Z"/><path class="cls-3" d="M121.23,200.91C117,203,114.85,202,112.7,198q-40.29-75.85-81-151.48c-.39-.73-.89-1.39-1.9-3V200.13H22.66V28.69c4.67-2.87,6.82-.51,9,3.62q39.75,74.16,79.76,148.17c.32.58.76,1.09,1.9,2.71V28.33l7.87,1.05Z"/><path class="cls-3" d="M493.58,165.37h7.72c-3,9-5.19,17.48-8.64,25.43-3.25,7.47-9.91,11.7-17.94,12.87-28.23,4.11-46.62-5.88-55.24-33.49-7.41-23.75-7.49-48.24-6.57-72.76.58-15.33,2.12-30.56,6.64-45.33C423,41,427.55,30.41,436.93,23c21.71-17.26,51.35-7.36,60,19.87,3.69,11.6,6.68,44.85,5.12,57.75H420.67c0,9.37-.42,18.64.1,27.86.87,15.46,2.36,30.85,8.34,45.45,7.34,17.88,23.76,27,42.63,23.32,11.23-2.18,17-9.73,19.62-20.18C492.3,173.32,492.81,169.52,493.58,165.37ZM494.5,93c.07-17.21-.26-33.62-5.06-49.6-3.37-11.22-10.07-19.1-22.19-20.93-13.38-2-25,1.24-32.61,13.18-11.2,17.5-12.1,37.49-13.59,57.35Z"/><path class="cls-3" d="M347.53,163.57H355c-1.55,16-5.65,30.83-21.81,37.21-22.83,9-53.24,4.9-64.12-28.8-6-18.51-7.27-37.57-7.42-56.71-.18-21.5.75-43,7.64-63.68,4.26-12.79,10.69-24,23.36-30.44,29.52-14.93,61.35,3,64.09,36.72l-7.18.63c-.66-3-1.18-5.88-1.92-8.7-3.53-13.4-10.88-23.16-25.34-25.72-14.25-2.53-26.84.32-36.32,12.11-8.22,10.22-11.48,22.48-13.39,35a266.3,266.3,0,0,0-.05,82.11c1.79,11.25,4.87,22.13,12,31.37,13.43,17.36,43.52,17.81,55.9.67A36.84,36.84,0,0,0,345.17,175C346.32,171.4,346.74,167.56,347.53,163.57Z"/><path class="cls-3" d="M627.09,202.41c-1.3-5.14.1-7,4.86-8.16,12.28-2.87,19.38-11.88,22.14-23.43s4.88-23.56,5.11-35.41c.67-35.47.29-71,.32-106.44V22.72h6.78c.09,1.44.27,3,.28,4.62.28,31.82,1,63.64.59,95.45a313.22,313.22,0,0,1-4.21,45.1c-1.77,11.13-7,21.15-16.69,28.05C640.56,200,634.12,201.79,627.09,202.41Z"/><path class="cls-3" d="M198.23,198.11h-6.58V92.7h6.58Z"/><path class="cls-3" d="M195.28,38.34c-1.34-2-3.48-4-3.83-6.16-.58-3.7,2.25-5.39,5.63-5.25s5.59,2.44,5,5.54c-.43,2.18-2.85,4-4.37,6Z"/></g></g></svg>