<svg xmlns="http://www.w3.org/2000/svg" viewBox="0 0 624.77 299.92"><defs><style>.cls-1{fill:#402622;}.cls-2{fill:#f07a47;}.cls-3{fill:#fff;}</style></defs><title>No hablo</title><g id="Camada_2" data-name="Camada 2"><g id="DESIGNED_BY_FREEPIK" data-name="DESIGNED BY FREEPIK"><path class="cls-1" d="M215.66,4.29c9.48,0,19-.1,28.44.09a9.07,9.07,0,0,1,4.8,2.05c3.94,3,7.71,6.17,12.06,9.7.45-4,.81-7.26,1.24-11.07,10.43,0,20.72-.1,31,.12,1.31,0,2.81,1.57,3.8,2.76,3.19,3.82,6.18,7.81,9.71,12.32C312.93,5.92,324.56,1.59,338.51,2c19.2.55,33.45,10,43.77,25.7,3.24,4.92,5.4,10.56,8.44,16.63V3.4c23.5,1,47.19-3.79,69,10.77C458.34,4,465.88,3.57,471.78,2c8.53-2.33,17.18-1.52,25.68.7,4.11,1.08,7,3.58,10,6.75C518.39,21,524.8,33.86,521.21,50.19c1.53-6.94,2.73-14,4.65-20.81C532.42,6,551.35-1.25,573.61,3.06c15.58,3,27.14,12.54,35.23,25.84,18.55,30.5,20.19,63.06,8.58,96-6.6,18.77-22.54,26.75-42.54,25.07-13.58-1.14-25.56-5.48-35-15.53-.52.5-.91.68-.93.91-1,10.3-1,10.3-11.94,11.83-19.95,2.78-30.88-.46-47.3-14.28-9.1,11.9-22.35,14-36.19,15.42-14.14,1.43-26.63-1.67-37.66-11.68-5.76,8.73-13.31,13.05-23.24,13-10.16-.1-17.28-5-22.23-13.6-9.36,15.46-26.55,17.54-41.9,5.08a48.51,48.51,0,0,1-14.89-20.9c-1-2.65-2.13-5.09-6.25-3.09v23.09H274.48c-5.5,0-11.13-.78-16.47.15-13.66,2.38-21-7.85-30.34-14.23-.81-.55-.91-2.36-1-3.61a18.53,18.53,0,0,1,0-5c1.37-8.22-1.28-14.47-8.43-19a6.83,6.83,0,0,1-2.68-4.86c-.28-29-.37-58-.48-87a3.14,3.14,0,0,1,.3-.91ZM521.42,80.34c-1.57,13-1.07,16.79,2.48,18.87C523.11,93.21,522.34,87.37,521.42,80.34ZM312.05,53.73v9.51l5.31-3.92Z"/><path class="cls-1" d="M50.07,24.22V5.08c10.71,0,21.14-.09,31.58.12,1.3,0,2.82,1.49,3.8,2.65,3.66,4.29,7.14,8.73,11,13.54C103.45,8.51,114.12,2.67,128,2c20.21-.93,35.38,8.12,46.7,24C190.2,47.7,194,72.45,191.37,98.32c-.93,9-2.71,18.27-6.08,26.62-7.6,18.78-23,27.08-43.13,24.92-14.76-1.58-18-2.87-32.73-13.05-.13,1.46-.33,2.67-.32,3.88.07,8.09.09,8.09-7.67,9.33-17.85,2.86-17.84,2.85-31.95-8.91-3.14-2.62-6.37-5.14-10.14-8.18v16.56c-12.88-.66-25.71,1.46-36.93-7.3-5.86-4.57-12.84-7.69-19.09-11.82C1.72,129.31,0,126.91,0,125.13c.1-39,.44-78,.75-117,0-.81.19-1.61.34-2.85,8.23-.72,16.31-1.58,24.4-2,1.49-.08,3.29,1.34,4.56,2.48C36.45,11.53,42.72,17.42,50.07,24.22Z"/><path class="cls-2" d="M.51,4.57C7.44,3.92,13.71,3.12,20,2.94c1.31,0,3.26,2,3.95,3.47,8.34,18.31,16.49,36.71,24.71,55.08.5,1.13,1.09,2.21,2,3.93V4.18H76.78V122.73c-6.69.46-12.93,1.07-19.17,1.15-1.18,0-2.87-1.84-3.52-3.21-8.86-18.63-17.57-37.32-26.33-56a7.61,7.61,0,0,0-3-3.54c.63,20.49,1.26,41,1.9,62L.51,122Z"/><path class="cls-2" d="M167.47,62.71c-1.31,14.31-1.55,28.46-7.39,41.81-5.36,12.29-14.87,18.44-28,19.27-13.66.85-26.23-1.78-33.87-14.48a51.69,51.69,0,0,1-6.78-17.55C87.77,69.91,87.25,48,93.42,26.39,98.34,9.22,110.53,1,129.57,1.4c17.6.41,29.43,9.51,33.07,26.81C165,39.55,165.91,51.2,167.47,62.71ZM114,63.18c1.35,10,2.4,20.38,4.26,30.59.81,4.46,3.58,8.48,8.9,8.88s8.5-2.82,10.26-7.25A59.71,59.71,0,0,0,141.18,71Zm27.14-10.93c0-8.78-.57-17.45-4-25.7-1.77-4.27-5.06-6.48-9.85-5.94S118.83,25.34,118,30.9C116,43.66,126,53.13,141.13,52.25Z"/><path class="cls-2" d="M597.82,62.93c.35,14.17.09,28.32-5.76,41.66-5.38,12.28-14.92,18.4-28,19.2-13.67.84-26.21-1.84-33.85-14.54a51.07,51.07,0,0,1-6.62-17.09c-3.91-22.34-4.46-44.77,2.18-66.78,4.07-13.47,13.08-21.9,27.4-23.54,15.33-1.77,29.76.5,37.13,15.9,4.06,8.5,5.61,18.33,7.33,27.74C598.66,51.12,597.82,57.1,597.82,62.93ZM574,71.31l-28-8.23c1.35,10.09,2.32,20.33,4.2,30.4,1.13,6.08,5.26,9.24,9.68,9.23s8.74-3.18,10.12-8.89C571.83,86.16,572.78,78.28,574,71.31Zm.18-18.67c-1.57-8.88-2.64-17-4.56-25a8.74,8.74,0,0,0-8.6-7.08c-4.79-.16-7.7,2.39-9.75,6.4A17,17,0,0,0,555,46.58C559.93,51,565.94,52.46,574.16,52.64Z"/><path class="cls-2" d="M391,3.53c11.91,0,23.46-.85,34.84.19,17.93,1.64,27.1,12.63,27,30.88-.06,11.06-3.17,20.72-15.06,26.11,2.2.81,3.5,1.34,4.84,1.78,11.57,3.8,17,12,17.64,23.95.7,12.94-1.69,24.42-14.51,30.82-3.51,1.75-7.53,3.35-11.37,3.46-14.27.4-28.55.16-43.37.16Zm24.36,95.39c7.49-.21,14.68.6,18.75-6.56,2.47-4.34,2.29-9.19-1-13.07-4.82-5.68-11.48-4.35-17.75-4.43Zm-.72-47.39c6.08.81,11.28,0,14.43-5.17s4.36-10.7.67-16-9.31-5.52-15.1-5.17Z"/><path class="cls-2" d="M344.21,50.62c-.53-7.14-.85-14.08-1.65-21a6.34,6.34,0,0,0-6.32-6c-3.87-.23-7,1.07-8.42,4.83a86.65,86.65,0,0,0-2.3,8.77h-21c-2.64-17.91,5.88-34.39,24.74-35.58,2-.13,4-.3,6-.31,18.55-.09,28.46,7.87,31.89,26.19a106.32,106.32,0,0,1,1.68,18.35c.21,18.15.08,36.3.08,54.94h9.23c.47,6.06,1,12.29,1.36,18.52a2.8,2.8,0,0,1-1.56,2.12c-6.69,2.28-13.93,4.69-20.16.36-4.43-3.08-7.34-8.34-10.11-11.66-3.55,3.19-7.46,8.61-12.74,11.09-17.08,8-32.6-1.15-36-20.39C294.16,73.55,310.5,53.2,339,51Zm.35,16.32c-13.69-.33-24.61,11.33-23.44,23.89.41,4.36,1.78,8.18,6.61,9.47a10.64,10.64,0,0,0,12-4.92,19.82,19.82,0,0,0,3-7.3C343.59,81.23,344,74.3,344.56,66.94Z"/><path class="cls-2" d="M240.32,34.07h22.1V4.82h26.21V90.67h-24.2V56.58h-23.1V89.51H215.4v-85h24.92Z"/><path class="cls-2" d="M496.79,100.17l17.91-1.31c0,7,.13,13.92-.14,20.85,0,1.08-1.87,2.87-3,3-7.57.81-15.24,2.19-22.75,1.62-12.08-.92-18.75-8.89-18.81-21-.12-25.13-.05-50.27-.05-75.41V22.15H459.59c0-5-.12-10.09.1-15.18a4.19,4.19,0,0,1,2.11-2.92C472.73-1.37,484-.89,495.25,2.79c1.09.35,2,3.11,2,4.75-.05,27.3-.26,54.6-.44,81.9C496.77,92.72,496.79,96,496.79,100.17Z"/><path class="cls-2" d="M279.75,119H226.64V100.42c7.07,0,13.86,0,20.64,0,9.48-.06,19-.09,28.44-.31,3-.07,4.21.8,4.08,3.94C279.6,109,279.75,114,279.75,119Z"/><path class="cls-3" d="M587.14,53.77c1.36-.39,2.31-1,3.15-.82a3.17,3.17,0,0,1,2,1.58c.19.37-.54,1.74-1,1.84-4.65.92-3.79,4.46-4.12,7.74-.95,9.41-1.35,19-3.55,28.12-3.55,14.72-11.59,21-24.57,21-13.55.07-22-5.9-25.73-20.44-5.58-21.82-5.59-43.89,1.33-65.52,4-12.41,12.65-18.33,24.54-18.15,11.53.18,19.86,6.85,23.74,19.3a89.54,89.54,0,0,1,2.82,12.12C586.43,44.65,586.64,48.81,587.14,53.77Zm-4.45,6.08c-20.58,4.48-36.61-.25-47.2-19-.53,12.74-.88,25.21-.37,37.65A61.23,61.23,0,0,0,538.58,95c2.95,8.89,9.43,13.85,18.9,14.59a19.43,19.43,0,0,0,19.27-10.8C582.73,86.57,582.88,73.48,582.69,59.85Zm-.48-4.55c1.12-10.9-2.35-26.46-7.56-33.91-5.8-8.29-16.53-10.75-25.69-5.89-8.61,4.58-12.23,14.53-8.68,23.87C546.1,54.68,565.31,62,582.21,55.3Z"/><path class="cls-3" d="M155.06,53.75c1.23-.33,2-.81,2.69-.67a11.14,11.14,0,0,1,2.64,1.34c-.5.73-.88,2-1.51,2.12-3.81.82-3.42,3.62-3.7,6.51-1,9.74-1.31,19.66-3.56,29.12-3.5,14.76-11.55,21-24.51,21.08-13.58.09-22-5.85-25.78-20.38-5.61-21.82-5.6-43.89,1.29-65.52,4-12.44,12.6-18.36,24.5-18.21,11.4.14,19.77,6.46,23.53,18.79,1.93,6.31,2.68,13,3.86,19.51C154.85,49.36,154.86,51.34,155.06,53.75Zm-51.29-13.7c-.38,3.09-.78,5.19-.87,7.3-.67,15.8-1.84,31.65,3.4,47,2.94,8.64,8.75,14.1,18,15,7.82.79,14.75-1.45,19-8.4,7.74-12.64,7.42-26.76,7.35-41C125.85,63.51,114.84,58.91,103.77,40.05Zm46.87,15.07C150,43.3,149.46,31.33,142.34,21c-5.55-8.07-16.4-10.26-25.38-5.48a18.93,18.93,0,0,0-8.88,23.41C113.77,54.54,133.12,62.06,150.64,55.12Z"/><path class="cls-3" d="M399.29,10.79c7.71.39,15.77,0,23.53,1.39,10.12,1.78,17.29,8,19,18.6,1.81,11.55-1.61,21.38-11.31,28.53-1.45,1.07-3,2-4.9,3.18,2.33.71,4.23,1.25,6.11,1.86,11.67,3.74,17,11.61,16.46,24.15-.52,11.46-6.49,19.11-18.2,21-9.76,1.62-19.78,1.68-30.66,2.5Zm4.38,96.58c10.17,0,19.65.65,28.75-2.84,7.47-2.87,11.17-8.75,11.2-17.66,0-9.37-3.53-15.42-11.2-18.15-9.25-3.29-18.86-3.18-28.75-2.62ZM403.45,15v46.7c4.3,0,8,.4,11.54-.08,11.45-1.56,19.66-8.71,22.07-18.79,3.53-14.72-3.39-25.85-17.7-27.72C414.16,14.43,408.79,15,403.45,15Z"/><path class="cls-3" d="M13.26,26.32c0,1.74,0,3.47,0,5.21q.12,37.5.25,75c0,2.54.28,5.24-3.94,3.85V16.27c3.84-2.48,4.49,1.22,5.57,3.2,9.41,17.24,18.69,34.54,28,51.82,5.17,9.59,10.38,19.17,16.48,28.53V16.39c4-.71,4.63,1.17,4.62,4.21-.12,29-.11,58-.24,87,0,1.37-1,2.74-1.6,4.11-1.19-1-2.82-1.66-3.49-2.89q-18.39-34-36.58-68.18c-2.61-4.88-5.28-9.74-7.92-14.61Z"/><path class="cls-3" d="M372.16,109.09c1.34,3.07.42,4.56-3,5-6.55.79-11.82-1.79-13.76-8.1a62.23,62.23,0,0,1-2.7-15.61c-.41-10-.12-19.95-.12-29.8-21.69-7.66-45.68,9.83-44.22,31.94.45,6.85,2.92,12.68,9.5,15.88s12.84,1.44,18.29-2.53c3.52-2.57,6.21-6.25,9.33-9.49a8.45,8.45,0,0,1-.15,2.64c-3.12,8.87-14.52,15.75-24,14.55-9.67-1.22-16.13-8.33-17.28-19C302,75,316.24,57.92,336.72,55.88c5.06-.51,10.21-.08,16-.08-.93-11.16,1.79-22-2.91-32.41-3.39-7.48-9.62-11.27-17.5-10.56-8.1.72-14.23,5.74-15.78,13.6-.65,3.29-2,3.73-4.66,2.79.65-11,8.33-19.09,19.11-20.28,11.45-1.25,21.53,5,24.21,15.58a67.34,67.34,0,0,1,2,15.28c.25,16,0,32,.12,48a68.14,68.14,0,0,0,.79,11.43C359.79,108.76,362.73,110.72,372.16,109.09Z"/><path class="cls-3" d="M271.37,41.5c0-8.78.05-16.6,0-24.41,0-2.68.55-4.29,4-3v60.2c-3.59.66-3.69.66-3.72-2.93-.06-8.48,0-17,0-25.68h-43v28.8c-3.07,1-4.76.84-4.75-2.67q.07-27.48,0-55c0-3,1.21-3.9,4.44-2.59V41.5Z"/><path class="cls-3" d="M505.56,109.36c-1.23,1.11-2.44,3.14-3.69,3.16a114.44,114.44,0,0,1-15.37-.78c-3.69-.43-5.93-2.8-6.19-6.71-.18-2.65-.57-5.3-.57-8q-.08-39.75,0-79.49c0-6.38-.39-6.73-6.93-6.1a39,39,0,0,0-4.44.66,10.72,10.72,0,0,1-5.28.25c.88-1.14,1.53-2.69,2.69-3.33A13.84,13.84,0,0,1,470.58,8c10.52-1.45,13.66,1.3,13.65,12,0,27.17,0,54.33-.22,81.49-.05,4.36,1.52,6.18,5.43,6.31,5,.17,9.92,0,14.87,0Z"/><path class="cls-3" d="M268.82,111.36c-11.26,0-22.52,0-33.78-.09-.88,0-1.74-1.32-2.62-2,.88-.71,1.75-2,2.64-2,10.61-.18,21.23-.25,31.84-.09,1,0,2.05,1.68,3.07,2.58Z"/><path class="cls-1" d="M398.33,176.39c.8-1.57,1.43-2.7,2-3.86,5.69-12.26,15.37-19,28.71-20.24,25.45-2.45,43,10,54.55,31.14,15.67,28.57,16.61,58.89,6.77,89.49-5,15.53-16,25.06-32.83,26.63-19.62,1.83-36.69-2.92-49-19.53a5.88,5.88,0,0,1-.5-2l-1.41,1v13.8c-10.45,2.09-20.65,4.28-30.92,6-1.42.24-3.32-1.69-4.84-2.84a41.73,41.73,0,0,1-3.51-3.17c-4.07.91-7.29,1.73-10.54,2.32-3,.54-6.14.3-8.88,1.33-10,3.75-17.9.84-25.15-6.28-3.05-3-6.85-5.24-10.85-8.23V295.8H301.76c-7.67,0-15.35-.25-23,.1-3.9.18-6.34-1.15-8-4.46a3,3,0,0,0-.25-.43c-5-7.23-11.18-14-7.86-24.31h-7v23.5H244.2c-7.83,0-15.83-1-23.46.22-14.48,2.37-24.3-5.31-34.08-13.68a6.79,6.79,0,0,1-1.78-4.3c-.26-3.49-.09-7-.09-10.5,0-6.82-.21-7.17-7.17-11.41,7.39,11.08,3.22,21.27-1.92,31-5.77,10.91-15.8,15.88-27.73,17-26.09,2.46-46.36-11.94-54.29-38.76-7.32-24.76-8-49.93-2.82-75.13,2.57-12.59,8.07-23.8,20.8-29.37,18.39-8,43.73-1.81,56.51,13.68,1.55,1.88,3,3.84,5.11,6.52V155.12c10.47-.27,20.54-.81,30.6-.58,2.18,0,4.36,2.75,6.44,4.36,2.74,2.14,5.37,4.4,8.78,7.2.46-4.06.83-7.37,1.25-11.07,10.52,0,20.66-.1,30.8.11,1.33,0,2.88,1.41,3.9,2.54,2.3,2.56,4.34,5.37,6.62,8.23,9.38-18.41,32.79-14.71,44.44,6.81V156.78c6.84-.48,13.24-1.22,19.64-1.29,5.36-.05,10.73.72,16.1,1a5.46,5.46,0,0,0,2.34-.58c21.31-9.16,42-2,52.95,18.39C397.43,174.88,397.74,175.39,398.33,176.39ZM145.22,235.23c6.07,0,11.42.48,16.64-.12,7.15-.83,7,6.93,11.38,9.13V214.46c-11.94,5.14-20.13-.36-27.22-9.1l-.8,1Zm154.69-38.55,6.39,6.94V189.69Z"/><path class="cls-2" d="M334.33,270.57,307.2,272c-.57-38.76-1.13-77.11-1.7-116l26.79-1.51c.38,3.35.69,6.11,1.08,9.59,1-1.08,1.55-1.59,2-2.17,6.79-9,16.72-12.52,27.38-9.81,9.44,2.39,16,10.33,17.59,21.41a64.11,64.11,0,0,1,.78,9q.11,43.48.08,87a21.68,21.68,0,0,1-.36,2.51l-27.43,1.74c-.13-2.05-.35-3.95-.35-5.86,0-24.65.05-49.31-.09-74a86.4,86.4,0,0,0-1.47-14.33,7.22,7.22,0,0,0-7.77-6.37c-4.34.1-7.18,2.72-8.1,6.86a49,49,0,0,0-1.19,10.38c-.11,24.83-.09,49.65-.11,74.47Z"/><path class="cls-2" d="M471.44,214.11c-1.7,10.84-2.53,23.23-5.71,35-5.82,21.49-22.67,27.54-43.38,23.88-14.8-2.61-22.6-12.77-25.88-26.5-5.58-23.34-6-46.9.86-70,5.57-18.76,17.81-26.16,38.43-24.94,16.62,1,27.88,11,31.3,29C469.07,191,469.89,201.84,471.44,214.11Zm-52.78-.65c.22,4.9.14,10.4.79,15.8a103.33,103.33,0,0,0,3.17,16.07c1.14,4,3.91,7.12,8.5,7.32s7.78-2.44,9.69-6.55c3.87-8.34,3.83-17.26,4.32-25.08Zm27.56-11.25c-2-9.21-3.08-18.15-6-26.46-2.4-6.91-11.55-7.26-15.67-1.11a18.59,18.59,0,0,0-2.94,8.27C420.56,194.66,430.55,203,446.22,202.21Z"/><path class="cls-2" d="M163.24,189.59l-25.16,2.09c-.54-3.68-.79-7-1.56-10.18-1.1-4.57-3.81-7.87-8.82-8.24a9,9,0,0,0-9.86,6.81c-1.48,4.9-3,10-3,15.08,0,13.95.7,27.9,1.15,41.86a7.67,7.67,0,0,0,.33,1.46c1.83,8.27,5.57,12.33,11.08,12s8.1-4.1,9.06-13c.09-.79.17-1.59.28-2.58h22.44c1.51,17-7,35.15-26,38.3-18.63,3.09-34.91-3.13-40.77-23.25a133.74,133.74,0,0,1,.05-74.93c3.83-13.53,13.07-21.89,27.47-23.3,15.1-1.49,29.15.64,36.67,15.93C159.75,174.24,160.92,181.78,163.24,189.59Z"/><path class="cls-2" d="M246.74,240.82h-24.4V206.69H199.53V239.4H173.58v-85h24.83v29.7h22.1V154.84h26.23Z"/><path class="cls-2" d="M288.5,191.63v79.84H262.28V191.63Z"/><path class="cls-2" d="M237.38,250.7v18.36H184.87V250.7Z"/><path class="cls-2" d="M276.36,153.48a15.08,15.08,0,0,1,14.81,15,15.4,15.4,0,0,1-15.71,15.28,15.69,15.69,0,0,1-14.86-15.69A15.2,15.2,0,0,1,276.36,153.48Z"/><path class="cls-3" d="M459.59,203.47a4.53,4.53,0,0,1,2-.44,10.5,10.5,0,0,1,2.61,1.4c-.5.72-.9,2-1.52,2.08-4.12.83-3.53,3.86-3.84,6.88-1.06,10.21-1.42,20.65-3.92,30.52-5.37,21.16-24.47,22.19-36.89,16.69-6.74-3-10.55-8.87-12.34-15.54-6-22.46-6.35-45.14.55-67.39,4.11-13.25,13.21-19,25.22-18.52,11.82.5,20.06,7.39,23.58,20.71C457.1,187.52,458.09,195.45,459.59,203.47Zm-51.5-12.09-1.55.26c-.05,11.19-.61,22.42.06,33.56a85.23,85.23,0,0,0,4.31,20.89c2.81,8.62,9.63,13,18.6,13.42,8.31.37,15-2.91,18.9-10.55,6.28-12.27,5.86-25.56,6.31-39.24C434.45,214.46,418.51,209.78,408.09,191.38Zm46.24,13.79c-.53-11.53-1.1-23.15-7.6-33.4-5.55-8.75-17.22-11.3-26.42-6.05a19.18,19.18,0,0,0-7.74,25.07C419.31,205.25,437.75,211.71,454.33,205.17Z"/><path class="cls-3" d="M149.09,181.41c-4.31,2.35-4.56-.47-5.17-3.24-1.57-7.18-5.35-12.6-12.9-14.3-8.37-1.89-16.23-.75-21.39,6.76a38.49,38.49,0,0,0-5.92,13.54c-4.14,19.94-4.66,40,1,59.76,2.25,7.84,7.2,13.3,15.66,15.1,11.72,2.48,20.68-3.17,22.81-14.87.48-2.64.9-4.66,4.24-3.36.42,10.19-4.72,18.14-13.74,21.3-10.43,3.65-23.55.57-28.57-8.32a65.72,65.72,0,0,1-7.4-21.89c-2.92-18.91-2.66-37.88,4-56.17,5-13.61,18.84-19.89,32.49-15C143.94,164.17,147,172.39,149.09,181.41Z"/><path class="cls-3" d="M229.88,195.67H186.24c0,8.59.11,16.69-.1,24.79,0,1.53-1.34,3-2.07,4.53-.67-1.41-1.91-2.82-1.92-4.24-.13-17.65-.1-35.3-.08-52.95,0-2.23-.59-5.14,4.05-3.7v27.39h43.23c0-8-.13-15.48.11-22.92,0-1.68,1.39-3.33,2.14-5,.7,1.57,2,3.13,2,4.71.18,17.48.17,35,.18,52.45,0,2.21.56,5.08-3.91,3.83Z"/><path class="cls-3" d="M364.56,263.25c-.09-2.08-.23-4.23-.27-6.37-.4-23.49-.75-47-1.23-70.46a64.89,64.89,0,0,0-1.1-11.9c-2.27-10.81-11.15-14.77-20.75-9.25-3.12,1.79-5.77,4.41-8.93,6.87,0-1-.29-2,0-2.65,2.77-5.66,12.95-11.08,19.35-10.44,6.95.7,12.19,5.56,14.05,13.62a68.82,68.82,0,0,1,2,13.8c.51,24.31.75,48.63,1.11,73C368.89,262.18,368.86,264.72,364.56,263.25Z"/><path class="cls-3" d="M315.05,263.18c0-23.28,0-46.43,0-69.58,0-9.33-.22-18.66-.09-28,0-1.43,1.39-2.85,2.14-4.27l1.64.62c.14,1.27.39,2.55.41,3.82q.6,46.5,1.16,93C320.33,261.31,321.05,264.57,315.05,263.18Z"/><path class="cls-3" d="M271.07,259.22c0-6.2-.06-12.48,0-18.75.12-11.79.27-23.59.56-35.37,0-1.18,1.09-2.34,1.67-3.51.68,1.22,2,2.43,2,3.66.13,16.94.06,33.88.11,50.82C275.4,259,274.74,260.63,271.07,259.22Z"/><path class="cls-3" d="M208.66,261.37c-5.14,0-10.28.09-15.41-.09-1,0-1.88-1.19-2.83-1.83,1-.78,2-2.23,2.94-2.25q15.64-.3,31.31-.13c.92,0,1.84,1.24,2.76,1.9-1,.8-1.88,2.24-2.87,2.29C219.27,261.49,214,261.37,208.66,261.37Z"/><path class="cls-3" d="M278.22,168.42c-1.91,1.11-3.15,2.41-4.15,2.25s-1.95-1.71-2.91-2.65c1.12-1,2.11-2.56,3.38-2.85C275.29,165,276.5,166.82,278.22,168.42Z"/></g></g></svg>