<svg xmlns="http://www.w3.org/2000/svg" viewBox="0 0 537.27 284.27"><defs><style>.cls-1{fill:#402622;}.cls-2{fill:#f07a47;}.cls-3{fill:none;stroke:#fff;stroke-miterlimit:10;stroke-width:3px;}</style></defs><title>Pero no mucho</title><g id="Camada_2" data-name="Camada 2"><g id="DESIGNED_BY_FREEPIK" data-name="DESIGNED BY FREEPIK"><path class="cls-1" d="M.2,3.26c15.6,0,30.64-1,45.47.3,13.68,1.23,24.08,9.81,32.67,20.31,1,1.28,2,2.59,3.41,4.31.91-1.73,1.74-3,2.33-4.46C91.52,5.84,106.49-.29,125,1.5a59.75,59.75,0,0,1,34.74,14.79V6c9.84-.64,19.09-1.71,28.31-1.53,2.41,0,4.73,4,7.48,6.52,4.64-6.17,11.29-8.89,19.33-9.9,9.77-1.21,11.7,7.86,17.5,11.75,3.75-2.59,7.26-5.7,11.32-7.68,17.19-8.38,39.67-3.81,54.81,10.92,12.87,12.52,20.1,28.13,23,45.54,3.66,21.6,3.72,43.17-5,63.83-6.29,14.9-17.87,22.87-34,23.66-29.48,1.44-49.1-12.57-56.36-41.39-3.07-12.16-3.83-24.9-5.5-37.4a62.82,62.82,0,0,1,0-8c-6.29,1-9.57,5.92-8.7,12.92,2.59,20.8,5.28,41.6,7.9,62.4.41,3.27.63,6.56,1,10.43-10.44,1.68-20.55,3.52-30.74,4.79-2,.25-4.79-1.15-6.38-2.67-6.6-6.28-12.88-12.9-18.23-18.34-6.28,5.39-11.25,11.91-17.81,14.84-16.14,7.19-31.26,2.56-44.75-7.83-8.53-6.58-13.75-15.68-17.7-25.55-.49-1.23-.91-2.49-1.41-3.72-.12-.29-.45-.48-1-1-7.76,7.49-17.53,9.26-28.66,8.61.8,10.47,1.55,20.34,2.3,30.2-7.18,0-14.14-.44-21,.11-9,.72-15.24-3.29-22.22-8.48C3.09,131.51-.2,123,.11,110.54c.85-34,.17-68,.09-102Z"/><path class="cls-1" d="M347,6c10.6-.62,21.06-2.57,31.1-1.28,5.6.72,9.31-1.59,13.86-2.52,16.92-3.47,36.19,2.6,45.23,20.42.45.88,1,1.72,1.66,3,1.91-3.43,3.4-6.71,5.42-9.62C453.3,2.82,466.75,0,481.3,1.58,503.35,4,517.4,17.92,526.39,36.87c13.39,28.25,14.12,57.63,3.85,86.94-5.75,16.42-18.38,24.73-35.85,25.41-18.42.73-34.12-4.71-45.5-20a9.8,9.8,0,0,0-1.52-1.17v14.09c-10.51,2.06-20.69,4.63-31,5.74-2.85.3-6.17-3.72-8.95-5.55-6.49,1.22-13.15,2-19.55,3.77-9.27,2.53-16.9.77-23.87-6-4.62-4.49-12-7.09-14.74-12.32-2.67-5-1.15-12.31-1.24-18.61q-.71-49.23-1.29-98.46C346.69,9.23,346.85,7.77,347,6Z"/><path class="cls-2" d="M374.48,119.19l-27.12,1.72c-.57-38.75-1.14-77.13-1.71-116.14l26.78-1.45c.36,3.15.7,6,1.13,9.87C378.08,6.83,382.78,2.3,390,.86c15.91-3.18,28.15,5.21,30.5,21.33a64.1,64.1,0,0,1,.77,9q.12,43.47.09,86.93a25.85,25.85,0,0,1-.35,2.78l-27.52,1.33c-.11-2.27-.28-4.18-.29-6.09,0-24.15,0-48.3-.05-72.44a83.85,83.85,0,0,0-1-13.91c-.75-4.3-2.86-7.87-8.22-7.72-4.7.13-7.56,2.49-8.46,8.13a88.4,88.4,0,0,0-1,13.41c-.09,23.15,0,46.3,0,69.45Z"/><path class="cls-2" d="M298.38,61.17c-.88,13.31-1.5,26.48-6.1,39-5.95,16.19-18.09,23.72-35.37,22.38-19-1.48-28.29-8.29-33.22-27.41A131.65,131.65,0,0,1,224.48,25C230.39,4.48,245.61-1.39,264.13.45c17,1.68,26.9,11.46,30.15,29.1C296.21,40,297.05,50.62,298.38,61.17ZM246.06,62.4c0,2.22-.1,5.05,0,7.87A99.39,99.39,0,0,0,247,83.21a49.17,49.17,0,0,0,3.74,12.86c3.34,6.86,12.22,7.2,16.16.65,5.25-8.72,4.87-18.59,5.31-27.07Zm24.84-9.81,2.31-1.84c-1.81-8.67-2.82-17.61-5.65-25.93-2.49-7.28-11.41-7.59-16-1.32-5.1,7-3.8,18,3.55,22.64C259.84,49.13,265.6,50.5,270.9,52.59Z"/><path class="cls-2" d="M511.38,61.24c-1,13.47-1.46,26.81-6.35,39.46-6.1,15.81-17.8,23.07-34.7,21.91-19.17-1.32-28.72-8.3-33.66-27.53A132.32,132.32,0,0,1,437.49,25C443.25,4.76,458.87-1.49,478.19.53c17.64,1.83,25.87,13.65,29.06,29.1C509.4,40,510.06,50.69,511.38,61.24Zm-25.26,8.65L459,62.39c.12,10.14-.2,21.07,3.66,31.56,1.44,3.91,3.72,7,8.52,7.26,5.06.22,8.71-2.26,9.89-6.77C483.25,86,484.61,77.44,486.12,69.89ZM486.17,51c-1.74-8.74-2.94-17.4-5.42-25.68-.76-2.55-4.72-4.94-7.68-5.84-3.82-1.16-7.17,1.28-9,4.79a20.42,20.42,0,0,0-2.31,7.52C460.82,43.54,470.68,51.71,486.17,51Z"/><path class="cls-2" d="M145.42,63.57H103.26c.27,10.19.31,20.31,4.45,29.85,1.46,3.38,3.65,6.07,7.85,5.73s5.57-3.35,6.38-6.7,1.15-6.51,1.76-10.12h22.15c2.06,14.91-6,31.52-17,37-12.8,6.31-28.93,3.5-38.37-7.15C84.2,105,80.77,96.5,79.12,87.48c-3.85-21-3.92-42.08,2.38-62.77C89.78-2.53,115.58-3.51,131.17,4.08c6,2.92,9.77,7.94,12.39,13.85C148.19,28.33,149.08,52.43,145.42,63.57ZM123.2,44.1c-.93-5.88-1.57-11.43-2.75-16.87-.73-3.33-2.58-6.23-6.61-6.39-4.36-.18-7,2.54-7.9,6.26-1.36,5.69-1.92,11.57-2.86,17.61,5.46,0,9.89,0,14.33,0C119,44.66,120.63,44.37,123.2,44.1Z"/><path class="cls-2" d="M25,91.1V121H0V1.74H7.09c8.49,0,17,.26,25.47-.05C53.39.94,65.11,13.42,68.82,31.09A72.43,72.43,0,0,1,66.72,70C62.16,83.3,52,90.8,37.8,91.08,33.67,91.17,29.54,91.1,25,91.1Zm-.51-21.95c2.68,0,4.64,0,6.59,0,9.45,0,13.6-3,15.14-12.3A63.58,63.58,0,0,0,46.6,40c-1.45-13.58-8.21-18.24-22.14-15.84Z"/><path class="cls-2" d="M188.07,119.2,160.27,121V4.65l22.79-1.3c.68,7.72,1.33,15.12,2,22.51C190.63,12.4,196-.89,214.67.38V30.92c-2.86,0-5.48-.06-8.1,0-9.13.26-15.09,4.58-17.39,13.51a64.31,64.31,0,0,0-2.33,16.21c.1,16.64.78,33.28,1.21,49.92C188.13,113.21,188.07,115.85,188.07,119.2Z"/><path class="cls-3" d="M285.16,54.05c-1.81-5.35-1.4-11-2.43-16.52-1.53-8.23-4-15.65-10-22.09C265,6.9,244.92,8.8,239.56,19.5c-1.87,3.74-3.48,7.33-4,11.54-.66,5.62-4,10.66-3.92,16.51.3,16.31-1.68,32.85,5,48.5,3.7,8.66,12.9,14.76,22,13.93,11.31-1,17.51-5.77,21-15.44a85.62,85.62,0,0,0,4.5-37c-.46-5.17,4-2.71,6-4"/><path class="cls-3" d="M498.16,54.05c-1.81-5.35-1.4-11-2.43-16.52-1.53-8.23-4-15.65-10-22.09C478,6.9,457.92,8.8,452.56,19.5c-1.87,3.74-3.48,7.33-4,11.54-.66,5.62-4,10.66-3.92,16.51.3,16.31-1.68,32.85,5,48.5,3.7,8.66,12.9,14.76,22,13.93,11.31-1,17.51-5.77,21-15.44a85.62,85.62,0,0,0,4.5-37c-.46-5.17,4-2.71,6-4"/><path class="cls-3" d="M12.16,79.05c7,0,14,.09,21,0,15.35-.25,20.35-7.28,23.2-19.55a54.19,54.19,0,0,0-1-29.48C52,20,42.92,12.17,30.16,12.06c-5.17-.05-10.34,0-15.5,0-2.86,0-4,1.17-4,4,0,19.67,0,39.33,0,59,0,10.5.31,21,.48,31.5"/><path class="cls-3" d="M89.66,52.05h44.06c-.3-11.69-.21-22.94-4.65-33.46-2.76-6.52-8.62-9.3-15.42-9.46-7.45-.18-13.51,2.56-17.56,9.38S90.56,32.44,89.57,40a162.23,162.23,0,0,0-1.35,26.51c.32,9.48,1,19,4.46,28,4.65,11.9,15.49,17.49,28.47,14.47,6-1.39,10.5-8.91,11-17.46"/><path class="cls-3" d="M407.16,109.55c-.17-16.67-.26-33.34-.53-50-.18-10.34-.61-20.67-1-31a28.14,28.14,0,0,0-4.07-13.45c-3-5-11.2-6.76-17.39-4-4.56,2-8.83,4.59-11,9.46"/><path class="cls-3" d="M357.66,13.05q.49,48.5,1,97"/><path class="cls-3" d="M170.66,13.05q1.2,42,1,84c0,4.16.31,8.33.48,12.5"/><path class="cls-3" d="M235.66,36.55c3,2.1,4.08,5.7,5.83,8.6,6,10,22.27,14.77,34.17,12.42,2.47-.49,4.9-1.43,7.5-1"/><path class="cls-3" d="M448.66,36.55c3,2.1,4.08,5.7,5.83,8.6,6,10,22.27,14.77,34.17,12.42,2.47-.49,4.9-1.43,7.5-1"/><path class="cls-3" d="M206.16,13.55c-12.52,3.7-18.62,12.78-21,25"/><path class="cls-1" d="M252.76,255.63v27.08c-9.82,0-19.09.3-28.32-.22-2.17-.12-4.21-2.95-6.24-4.61-1.53-1.25-2.95-2.62-4.42-3.94-12.51,13.94-30.51,13.23-43.4.48-.24,2.2-.44,4.05-.73,6.63-9,.36-18.1,1.57-27.07.72-4.27-.4-8.19-4.68-12.22-7.29-2.73-1.77-4.81-2.91-8.87-2.09-9.23,1.87-18.85,1.89-28.32,2.5a7.2,7.2,0,0,1-3.59-1.33c-2.38-1.39-4.67-3-7.75-4.94v10.56c-8.06.53-15.66,1-23.26,1.52a2.56,2.56,0,0,1-1.43-.35C48.07,274.77,39,269.21,30,263.47c-.82-.53-1.18-2.29-1.19-3.49q-.75-58.22-1.37-116.46a11.24,11.24,0,0,1,.25-1.87c8.34-2.54,31.75-2.53,34.88,0,11.32-9,30.48-6.4,40.27,4.81,7.5-9.65,17.52-11.64,28.94-9.39,11.05,2.18,19.29,8.56,26.81,17.94V138.9c11.33.57,22.09.91,32.8,1.81,1.86.16,3.63,2.6,5.26,4.18,2.25,2.18,4.32,4.55,7.32,7.74v-13.5c10.93-.58,21.18-1.23,31.44-1.54,1.15,0,2.67,1.63,3.47,2.86,3.57,5.53,6.93,11.18,10.7,17.33,1.84-3,3.17-5.46,4.78-7.72,6.85-9.62,16.73-13.37,28.05-13.79,19-.7,34.47,6.16,46.26,23.35V139.5c10.45-.41,20.23-.9,30-1.08,1.4,0,3,1.29,4.22,2.27,3.77,2.95,7.44,6.05,11.9,9.7.5-4.11.91-7.43,1.37-11.18,10.33,0,20.46-.12,30.59.14,1.43,0,3.1,1.65,4.18,2.94,3.82,4.57,7.43,9.31,11.45,14.39,5.13-10.56,12.89-17.16,23.93-19.34,19.66-3.88,36.22,2.06,49.61,16.68,12.34,13.46,18.87,29.79,21.08,47.64,2.4,19.3,2.25,38.6-5.11,57.1-6.52,16.41-18.73,24.91-36.4,25.47-23.46.76-40.87-8.6-51.09-30.29-.68-1.44-3-2.49-4.72-3s-4-.11-6-.08a20.3,20.3,0,0,0-2.09.33v23.08c-2.38.11-4.15.25-5.91.26-13.67,0-27.33.15-41-.11a16.9,16.9,0,0,1-8.13-2.69c-4.36-2.73-8.24-6.22-12.5-9.13a7.37,7.37,0,0,1-3.59-7.52c.24-2.31-.28-4.72.11-7,1.12-6.51-1.82-10.65-8.06-14,9,12.16,3.62,23.05-2.21,33.19-6.34,11-17.34,15.11-29.6,15.64-20,.88-35-7.45-45.15-24.73-.41-.71-.89-1.38-1.36-2C254.18,256.11,254,256.1,252.76,255.63Zm75-26.67,1-1V198.67c-12,5.66-19.87-1-28-9.51,0,9.94,0,18.06,0,26.18,0,3,1.28,4.23,4.25,3.89,1.14-.13,2.32,0,3.48,0C316.6,218.71,324.78,218.06,327.77,229Z"/><path class="cls-2" d="M26.18,139.76l26.64-1.46c.29,3.73.57,7.28.84,10.84,5.15-9.23,12.19-15,23.15-13.87s16.74,8,19.84,18.51c1.25-2.54,2.18-4.58,3.23-6.55,4.52-8.57,12.4-13,21.7-12.07s15.27,6.57,17.82,15.18a71.55,71.55,0,0,1,3.22,19.09c.35,27.82.18,55.66.18,83.49,0,.81-.15,1.62-.3,3.05L115,257.31c0-2.39,0-4.31,0-6.23,0-25.17.09-50.33-.08-75.5a48.42,48.42,0,0,0-2-13.72c-.6-2-3.64-4.36-5.63-4.41-2.29-.06-5.75,1.7-6.72,3.65a25.81,25.81,0,0,0-2.31,11c-.18,24.5-.09,49-.1,73.49v5.9L70.3,253.89v-5.82c0-24.66.07-49.33-.08-74a37.1,37.1,0,0,0-1.79-12.21c-.74-2.06-3.94-4.58-5.93-4.5-2.39.1-5.3,2.31-6.81,4.44-1.27,1.79-1.14,4.77-1.15,7.22q-.1,39.25,0,78.5v6.6l-26.62,1.81C27.31,217.1,26.75,178.69,26.18,139.76Z"/><path class="cls-2" d="M157.59,138c8.93.44,17.06.91,25.2,1.21,3.84.15,3,2.9,3,5,0,23.32-.05,46.64.09,70a110.75,110.75,0,0,0,1.35,14.86c.48,3.31,2.09,6,6,6.21s6.78-1.64,7.7-5.08A58,58,0,0,0,203,216c.2-24,.1-48,.1-72,0-1.81,0-3.62,0-6.13l27-1.43V255.61H203.89c-.25-2.44-.53-5.11-.73-7.09-4.48,2.64-8.63,6.4-13.44,7.68-16.35,4.37-29.48-5.17-31.47-22.23a114.42,114.42,0,0,1-.63-13q-.09-38.47,0-77Z"/><path class="cls-2" d="M491.65,193.61c-.23,16.81-.38,30.53-5.85,43.41-6.28,14.8-17.89,21.72-34.1,20.59-20.45-1.41-30.56-9.8-34.91-31.76-4.24-21.4-4.33-43.09,1.47-64.39s20.49-27.86,40.13-26c16.23,1.52,25.78,10.65,29.61,26.65a107.72,107.72,0,0,1,2.66,14.21C491.34,183.08,491.46,189.92,491.65,193.61Zm-52.44,3.47c1.34,9.94,2.36,20.3,4.27,30.49.81,4.37,3.38,8.39,9,8.64,5.09.23,8.23-2.47,10-6.78,3.4-8.25,4.18-16.93,3.93-24.78Zm26-9.55,2-1.93c-1.38-7.95-2.41-16-4.26-23.82-1-4.15-3.87-7.39-8.83-7.53-4.56-.13-7.41,2.28-9.45,6.11-3.74,7-2,16.63,4.84,20.86C454.25,184.14,460,185.49,465.23,187.53Z"/><path class="cls-2" d="M316.82,173.49l-23.42,2c-.89-4.28-1.41-8.07-2.51-11.69-1.21-4-3.93-6.47-8.36-6.71s-8,1.8-9.39,5.95a59.36,59.36,0,0,0-3.26,14c-1.23,15.11-1.92,30.26,1.37,45.26.18.81.4,1.61.63,2.41,1.94,6.63,5.43,9.77,10.5,9.47s7.77-3.68,8.67-11c.18-1.47.26-2.95.4-4.72h22.33a33,33,0,0,1-34.3,39.15c-18.53-1.13-28.27-8.2-33.12-26.82a132.75,132.75,0,0,1,.71-71.07c5.75-20,20.62-25.91,39.29-24.35S315.68,149.62,316.82,173.49Z"/><path class="cls-2" d="M375.48,168V138.57h26v85.81H377.23v-34H354.31v32.95H328.54V138.2h24.62V168Z"/><path class="cls-2" d="M392.23,234.39v18.52H339.64V234.39Z"/><path class="cls-3" d="M302.18,164c-1.3-2.55-1.57-5.41-2.83-8.08-3.14-6.66-8.25-10.15-15.17-10.84-8.9-.87-16.76,1.17-22,9.4-5.9,9.2-7.36,19.59-7.82,30-.46,10.64-.9,21.38.89,32,1.38,8.2,3.14,16.31,9.46,22.51,9.64,9.47,33.28,7.94,35.54-9.5.15-1.18,1.46-2.11,1-3.51"/><path class="cls-3" d="M479.18,189.54c-2.17-5.14-.49-10.69-1.85-16-2.17-8.53-3.68-17.14-10.63-23.47-10-9.11-29.16-5.78-34.53,7.51-6.18,15.29-7.26,31.33-6.35,47.49.45,8.1,1.49,16.18,4.25,24.05,5.25,15,22.08,19.29,33.59,12.92,6.6-3.65,9.63-9.75,11.66-16.92a93,93,0,0,0,2.86-34"/><path class="cls-3" d="M169.18,148c.84,19.33.8,38.67,1.18,58,.18,8.47-.63,17.12,1.76,25.52a26.11,26.11,0,0,0,3.64,8.42c6.24,8.5,20.36,6.52,25.92-3.44"/><path class="cls-3" d="M83.18,245c-.16-16.83,0-33.68-.62-50.49-.34-9.68-.24-19.34-.34-29a36.89,36.89,0,0,0-3.17-13.94c-3.07-7.24-10-8-18.37-2.56"/><path class="cls-3" d="M128.18,245c-.33-26-.58-52-1.08-78a44.31,44.31,0,0,0-2-13c-3.11-9.3-10.53-11.06-19.39-5"/><path class="cls-3" d="M38.18,148q.51,48.51,1,97"/><path class="cls-3" d="M215.18,149q.51,47,1,94"/><path class="cls-3" d="M429.68,170c3.78,4,4.65,9.74,8.93,13.59,8.71,7.85,18.63,10.32,30.09,9.05,5.32-.6,10-2.88,15-4.14"/><path class="cls-3" d="M385.68,177l-45,.5"/><path class="cls-3" d="M381.18,242.29l-32.5.25"/><path class="cls-3" d="M387.18,149v58"/><path class="cls-3" d="M339.18,149c.85,19.5.42,39,.5,58.5"/></g></g></svg>